<svg width="223" height="36" viewBox="0 0 223 36" fill="none" xmlns="http://www.w3.org/2000/svg">
<path d="M15.2843 16.9865L5.49669 2H15.5759L19.8224 10.3008L25.0718 2H35.1511L24.7873 16.9865L36.4883 34.1045H26.5371L20.2492 23.6285L12.88 34.1045H3L15.2843 16.9865Z" fill="white" stroke="#212C72" stroke-width="3"/>
<path d="M22.7043 13.9287C8.5849 10.4512 10.292 31.7887 19.9587 31.5559C23.5223 31.4686 24.8098 29.4098 25.2224 27.4238C25.6847 25.2049 24.6818 22.404 24.6747 20.2579C24.6604 16.1985 27.9253 14.5761 27.9253 14.5761C27.9253 14.5761 15.954 11.2442 18.2658 23.2697" fill="white"/>
<path d="M19.8045 32.8002C16.7388 32.8002 14.0856 30.9524 12.5065 27.7005C10.5149 23.5974 10.8207 18.3885 13.2178 15.3112C15.3304 12.6049 18.7945 11.681 22.9841 12.714C23.1619 12.7577 23.3255 12.8377 23.4607 12.9541C25.9004 12.7358 28.0913 13.3251 28.2406 13.3688C28.7314 13.507 29.0871 13.9362 29.1298 14.4527C29.1796 14.9693 28.9021 15.464 28.4469 15.6895C28.3473 15.7404 25.8649 17.0572 25.8791 20.2509C25.8791 20.9929 26.0285 21.8732 26.185 22.8044C26.4553 24.4267 26.7327 26.1 26.4055 27.6787C25.7368 30.8942 23.4607 32.7129 19.9824 32.8002C19.9183 32.8002 19.8614 32.8002 19.7974 32.8002H19.8045ZM18.8158 14.8529C17.2652 15.0493 16.0133 15.7259 15.117 16.8753C13.3032 19.196 13.1183 23.3791 14.6831 26.602C15.3731 28.0206 16.9664 30.3922 19.9255 30.3195C22.2941 30.2613 23.5958 29.2646 24.0297 27.1767C24.2573 26.0636 24.0226 24.6232 23.795 23.2336C23.6314 22.2442 23.4607 21.2185 23.4607 20.2727C23.4535 18.0975 24.2289 16.5116 25.0967 15.4203C23.5033 15.3548 21.6255 15.5876 20.4732 16.6862C19.2213 17.8793 18.8798 20.0181 19.4631 23.0445C19.5911 23.7211 19.1644 24.3758 18.5028 24.5068C17.8413 24.6377 17.2012 24.2012 17.0731 23.5246C16.3191 19.5962 16.9024 16.6862 18.8158 14.8674V14.8529Z" fill="#212C72"/>
<path d="M210.925 16.1011L211.336 19.1116L211.261 18.8414C211.834 17.7864 212.644 16.9373 213.691 16.294C214.738 15.625 216.022 15.2905 217.542 15.2905C219.087 15.2905 220.371 15.7665 221.392 16.7186C222.439 17.6449 222.975 18.8543 223 20.3466V32.9676H217.766V22.3537C217.741 21.6075 217.542 21.0156 217.168 20.5782C216.819 20.1151 216.221 19.8835 215.374 19.8835C214.576 19.8835 213.878 20.1537 213.28 20.694C212.682 21.2344 212.221 21.9677 211.897 22.894C211.573 23.8203 211.411 24.8881 211.411 26.0975V32.9676H206.177V16.1011H210.925Z" fill="#212C72"/>
<path d="M192.804 33.4308C190.81 33.4308 189.115 33.0448 187.719 32.2729C186.349 31.501 185.302 30.4332 184.579 29.0694C183.856 27.7057 183.495 26.1361 183.495 24.3607C183.495 22.6624 183.919 21.1314 184.766 19.7677C185.613 18.404 186.747 17.3233 188.168 16.5256C189.589 15.7022 191.171 15.2905 192.916 15.2905C195.258 15.2905 197.177 15.9981 198.673 17.4133C200.193 18.8028 201.178 20.8227 201.626 23.4729L188.916 27.6413L187.757 24.708L196.953 21.5045L195.869 22.0063C195.67 21.3373 195.308 20.7583 194.785 20.2695C194.286 19.7548 193.526 19.4975 192.504 19.4975C191.732 19.4975 191.046 19.6905 190.448 20.0765C189.875 20.4367 189.427 20.9642 189.103 21.6589C188.803 22.3279 188.654 23.1256 188.654 24.0519C188.654 25.1069 188.841 25.9946 189.215 26.715C189.588 27.4098 190.099 27.9373 190.747 28.2975C191.395 28.6577 192.118 28.8378 192.916 28.8378C193.489 28.8378 194.037 28.7349 194.561 28.5291C195.109 28.3232 195.645 28.053 196.168 27.7185L198.486 31.7326C197.614 32.2472 196.667 32.6589 195.645 32.9676C194.648 33.2764 193.701 33.4308 192.804 33.4308Z" fill="#212C72"/>
<path d="M161.822 32.9676V2.51514H166.944V19.4975L166.906 18.8414C167.48 17.7864 168.289 16.9373 169.336 16.294C170.383 15.625 171.667 15.2905 173.187 15.2905C174.732 15.2905 176.016 15.7665 177.037 16.7186C178.084 17.6449 178.62 18.8542 178.645 20.3466V32.9676H173.411V22.3536C173.386 21.6074 173.187 21.0156 172.813 20.5782C172.464 20.1151 171.866 19.8835 171.019 19.8835C170.221 19.8835 169.523 20.1536 168.925 20.694C168.327 21.2343 167.866 21.9677 167.542 22.894C167.218 23.8203 167.056 24.8881 167.056 26.0975V32.9676H161.822Z" fill="#212C72"/>
<path d="M157.055 31.4627C156.332 32.0545 155.422 32.5305 154.326 32.8907C153.254 33.251 152.195 33.4311 151.148 33.4311C149.279 33.4311 147.647 33.0837 146.251 32.389C144.88 31.6685 143.808 30.6521 143.036 29.3399C142.288 28.0019 141.914 26.3937 141.914 24.5153C141.914 22.637 142.326 21.0417 143.148 19.7294C143.97 18.3914 145.042 17.375 146.363 16.6803C147.709 15.9856 149.117 15.6382 150.587 15.6382C152.058 15.6382 153.329 15.844 154.401 16.2557C155.497 16.6674 156.432 17.2078 157.204 17.8768L154.662 21.3504C154.313 21.0674 153.827 20.7844 153.204 20.5013C152.606 20.1925 151.896 20.0382 151.073 20.0382C150.351 20.0382 149.69 20.2311 149.092 20.6171C148.494 21.0031 148.02 21.5306 147.671 22.1996C147.323 22.8686 147.148 23.6405 147.148 24.5153C147.148 25.3387 147.335 26.0978 147.709 26.7925C148.083 27.4872 148.594 28.0405 149.242 28.4522C149.915 28.8381 150.7 29.0311 151.597 29.0311C152.17 29.0311 152.693 28.9539 153.167 28.7995C153.665 28.6194 154.089 28.375 154.438 28.0662L157.055 31.4627Z" fill="#212C72"/>
<path d="M129.258 8.69043H134.492V16.0237H138.454V20.2307H134.492V32.9675H129.258V20.2307H126.716V16.0237H129.258V8.69043Z" fill="#212C72"/>
<path d="M116.353 16.1012H121.586V32.9678H116.353V16.1012ZM116.24 10.1188C116.24 9.3211 116.54 8.66496 117.138 8.15035C117.761 7.63573 118.421 7.37842 119.119 7.37842C119.817 7.37842 120.452 7.63573 121.026 8.15035C121.624 8.66496 121.923 9.3211 121.923 10.1188C121.923 10.9164 121.624 11.5726 121.026 12.0872C120.452 12.5761 119.817 12.8205 119.119 12.8205C118.421 12.8205 117.761 12.5761 117.138 12.0872C116.54 11.5726 116.24 10.9164 116.24 10.1188Z" fill="#212C72"/>
<path d="M95.639 14.6728L95.4895 16.1008L96.312 15.0201L105.284 4.56055H112.312L100.948 17.2973L112.35 32.9674H105.471L96.9849 20.8482L95.639 22.2377V32.9674H90.1436V4.56055H95.639V14.6728Z" fill="#212C72"/>
<path d="M47.1588 4.56055H54.0748L72.0193 32.9674H65.0284L47.1588 4.56055ZM46.7849 32.9674L56.5796 17.0658L59.1217 22.7008L53.5141 32.9674H46.7849ZM59.4955 14.9816L65.1779 4.56055H71.7576L62.2994 19.8061L59.4955 14.9816Z" fill="#212C72"/>
</svg>
