<svg viewBox="1 0 38 36" fill="none" xmlns="http://www.w3.org/2000/svg">
  <path d="M15.2843 16.9865L5.49669 2H15.5759L19.8224 10.3008L25.0718 2H35.1511L24.7873 16.9865L36.4883 34.1045H26.5371L20.2492 23.6285L12.88 34.1045H3L15.2843 16.9865Z" fill="white" stroke="white" stroke-width="3"/>
  <path d="M22.7043 13.9287C8.5849 10.4512 10.292 31.7887 19.9587 31.5559C23.5223 31.4686 24.8098 29.4098 25.2224 27.4238C25.6847 25.2049 24.6818 22.404 24.6747 20.2579C24.6604 16.1985 27.9253 14.5761 27.9253 14.5761C27.9253 14.5761 15.954 11.2442 18.2658 23.2697" fill="white"/>
  <path d="M19.8045 32.8002C16.7388 32.8002 14.0856 30.9524 12.5065 27.7005C10.5149 23.5974 10.8207 18.3885 13.2178 15.3112C15.3304 12.6049 18.7945 11.681 22.9841 12.714C23.1619 12.7577 23.3255 12.8377 23.4607 12.9541C25.9004 12.7358 28.0913 13.3251 28.2406 13.3688C28.7314 13.507 29.0871 13.9362 29.1298 14.4527C29.1796 14.9693 28.9021 15.464 28.4469 15.6895C28.3473 15.7404 25.8649 17.0572 25.8791 20.2509C25.8791 20.9929 26.0285 21.8732 26.185 22.8044C26.4553 24.4267 26.7327 26.1 26.4055 27.6787C25.7368 30.8942 23.4607 32.7129 19.9824 32.8002C19.9183 32.8002 19.8614 32.8002 19.7974 32.8002H19.8045ZM18.8158 14.8529C17.2652 15.0493 16.0133 15.7259 15.117 16.8753C13.3032 19.196 13.1183 23.3791 14.6831 26.602C15.3731 28.0206 16.9664 30.3922 19.9255 30.3195C22.2941 30.2613 23.5958 29.2646 24.0297 27.1767C24.2573 26.0636 24.0226 24.6232 23.795 23.2336C23.6314 22.2442 23.4607 21.2185 23.4607 20.2727C23.4535 18.0975 24.2289 16.5116 25.0967 15.4203C23.5033 15.3548 21.6255 15.5876 20.4732 16.6862C19.2213 17.8793 18.8798 20.0181 19.4631 23.0445C19.5911 23.7211 19.1644 24.3758 18.5028 24.5068C17.8413 24.6377 17.2012 24.2012 17.0731 23.5246C16.3191 19.5962 16.9024 16.6862 18.8158 14.8674V14.8529Z" fill="#1a2872"/>
</svg>
